<?xml version="1.0" encoding="UTF-8" standalone="no"?>
<!-- Created with Inkscape (http://www.inkscape.org/) -->

<svg
   version="1.1"
   id="svg2"
   width="1024"
   height="1024"
   viewBox="0 0 1024 1024"
   sodipodi:docname="AugmentedQuill_icon.svg"
   xml:space="preserve"
   inkscape:version="1.2.2 (b0a8486541, 2022-12-01)"
   xmlns:inkscape="http://www.inkscape.org/namespaces/inkscape"
   xmlns:sodipodi="http://sodipodi.sourceforge.net/DTD/sodipodi-0.dtd"
   xmlns:xlink="http://www.w3.org/1999/xlink"
   xmlns="http://www.w3.org/2000/svg"
   xmlns:svg="http://www.w3.org/2000/svg"><defs
     id="defs6"><linearGradient
       inkscape:collect="always"
       id="linearGradient1036"><stop
         style="stop-color:#8000ff;stop-opacity:1;"
         offset="0"
         id="stop1032" /><stop
         style="stop-color:#ff00ff;stop-opacity:1;"
         offset="0.56190318"
         id="stop1040" /><stop
         style="stop-color:#00ffff;stop-opacity:1;"
         offset="1"
         id="stop1034" /></linearGradient><linearGradient
       inkscape:collect="always"
       xlink:href="#linearGradient1036"
       id="linearGradient1365"
       gradientUnits="userSpaceOnUse"
       x1="34.847748"
       y1="482.73932"
       x2="330.9238"
       y2="206.144"
       gradientTransform="translate(385.68658,42.157613)" /></defs><sodipodi:namedview
     id="namedview4"
     pagecolor="#ffffff"
     bordercolor="#666666"
     borderopacity="1.0"
     inkscape:showpageshadow="2"
     inkscape:pageopacity="0.0"
     inkscape:pagecheckerboard="0"
     inkscape:deskcolor="#d1d1d1"
     showgrid="false"
     inkscape:zoom="1.3609604"
     inkscape:cx="513.97527"
     inkscape:cy="602.14829"
     inkscape:window-width="3840"
     inkscape:window-height="2042"
     inkscape:window-x="0"
     inkscape:window-y="0"
     inkscape:window-maximized="1"
     inkscape:current-layer="g8" /><g
     inkscape:groupmode="layer"
     inkscape:label="Image"
     id="g8"><g
       id="g285"
       transform="matrix(2.4141327,0,0,2.4141327,-817.97965,-543.54918)"><path
         id="path1224"
         style="font-variation-settings:normal;opacity:1;vector-effect:none;fill:url(#linearGradient1365);fill-opacity:1;stroke:none;stroke-width:1;stroke-linecap:butt;stroke-linejoin:miter;stroke-miterlimit:4;stroke-dasharray:none;stroke-dashoffset:0;stroke-opacity:1;-inkscape-stroke:none;stop-color:#000000;stop-opacity:1"
         d="m 665.51367,225.57617 v 5.5 5.5 h 5.5 5.5 v -5.5 -5.5 h -5.5 z m 45.5,1 c -3.41667,0 -3.5,0.0953 -3.5,4 0,3.9048 0.0834,4 3.5,4 3.4167,0 3.5,-0.0952 3.5,-4 0,-3.90477 -0.0833,-4 -3.5,-4 z m 20.5,7 v 5 5 h 5 5 v -5 -5 h -5 z m -105.02148,7.48633 c -1.02507,-0.63353 -14.97852,12.10815 -14.97852,13.67773 0,0.45977 3.60003,0.83594 8,0.83594 h 8 v -6.93945 c 0,-3.81754 -0.45937,-7.22682 -1.02148,-7.57422 z m 45.02148,8.42773 -7.10351,0.29297 -7.10547,0.29297 -0.43946,5.91211 c -0.24244,3.25155 -0.21014,6.51405 0.0723,7.25 0.36145,0.94191 2.59543,1.33789 7.54492,1.33789 h 7.03125 v -7.54297 z m 27.21875,0.002 c -4.22034,-0.0979 -8.49556,0.006 -8.85351,0.40429 -0.0891,0.0991 -0.49094,4.17473 -0.89258,9.05664 -0.50279,6.11144 -0.40125,8.75907 0.32812,8.5 2.17122,-0.77115 18.26931,-16.16475 17.93946,-17.15429 -0.13649,-0.40946 -4.30112,-0.70876 -8.52149,-0.80664 z m -48.21875,4.96484 -3.75,0.31055 c -3.64,0.30127 -3.76011,0.43325 -4.05859,4.55859 l -0.30664,4.25 h 4.05664 4.05859 v -4.55859 z m 63,1.11914 v 6.5 6.5 h 6.5 6.5 v -6.5 -6.5 h -6.5 z m -141,7 v 4 4 h 4 4 v -4 -4 h -4 z m 56,0 v 4 4 h 4.5 4.5 v -4 -4 h -4.5 z m -31,6 v 6 6 h 6.5 6.5 v -6 -6 h -6.5 z m 83.25,2.01563 c -3.23997,-0.0153 -3.25,6e-4 -3.25,5.04297 v 5.05664 l 4.25,-0.30664 c 4.15705,-0.30077 4.25614,-0.39216 4.56836,-4.20508 0.36453,-4.45176 -0.74318,-5.56519 -5.56836,-5.58789 z m -124.25,3.89843 -7.25,0.29297 -7.25,0.29297 -0.30273,6.39649 c -0.16581,3.51704 -0.0673,7.00457 0.21875,7.75 0.3694,0.96263 2.55871,1.35351 7.55273,1.35351 h 7.03125 v -8.04297 z m 66.33789,0.0859 -6.74023,7.5 -6.73828,7.5 h -8.92969 -8.92969 v -6 c 0,-3.29997 -0.34452,-6 -0.76562,-6 -0.4211,0 -6.15157,5.40003 -12.73438,12 l -11.96875,12 -5.01562,0.0996 c -7.54268,0.1499 -8.74211,0.77377 -17.20508,8.92969 -4.31499,4.15841 -10.33142,8.79097 -13.44141,10.35156 -3.09632,1.55375 -7.37135,4.34515 -9.5,6.20313 -4.65131,4.05988 -5.36914,4.18102 -5.36914,0.89843 0,-2.24071 -0.30383,-2.44797 -2.75,-1.86328 -4.01066,0.95864 -4.25,1.21024 -4.25,4.44141 0,2.49869 -0.39018,2.93945 -2.59375,2.93945 -1.72513,0 -2.76438,0.65019 -3.10156,1.93945 -0.2788,1.0661 -3.7872,4.45033 -7.79688,7.52149 -9.49306,7.27109 -27.57366,26.02639 -32.625,33.8418 -2.18444,3.37977 -4.96465,9.41531 -6.17773,13.41211 -1.21308,3.99677 -2.58622,7.27234 -3.05273,7.27734 -0.4665,0.005 -0.53536,-2.69219 -0.15235,-5.99219 0.47484,-4.0912 0.3491,-6 -0.39453,-6 -1.63037,0 -16.35441,18.84938 -25.38672,32.5 -8.58418,12.97341 -17.61159,30.78031 -20.10351,39.35742 a 56.0452,55.776138 0 0 0 -0.375,1.98633 56.0452,55.776138 0 0 0 13.05664,38.89258 c -0.0215,0.32511 -0.0415,0.65035 -0.0703,0.97461 -0.0727,0.81883 -0.157,1.6358 -0.22461,2.45508 -0.18876,2.28742 -0.22313,3.32403 -0.45117,5.58203 -0.073,0.72254 -0.12146,1.45039 -0.25586,2.16406 -0.0678,0.36009 -0.23987,0.69275 -0.34765,1.04297 -0.12647,0.41096 -0.25814,0.82141 -0.35547,1.24023 -0.0777,0.33452 -0.11346,0.67687 -0.16992,1.01563 -0.11292,0.33876 -0.24393,0.67111 -0.33789,1.01562 -0.0757,0.27774 -0.0789,0.57454 -0.16993,0.84766 -0.0798,0.23954 -0.24037,0.44566 -0.33984,0.67773 -0.18889,0.44076 -0.237,0.94926 -0.50781,1.35547 -0.0443,0.0664 -0.12367,0.10153 -0.16797,0.16797 -0.07,0.10504 -0.0941,0.23885 -0.16992,0.33985 -0.14372,0.19163 -0.37495,0.3085 -0.50781,0.50781 -0.07,0.10504 -0.0999,0.23285 -0.16993,0.33789 -0.0443,0.0664 -0.11346,0.11346 -0.16992,0.16992 -0.2432,0.24321 -0.63295,0.58172 -0.8457,0.84766 -0.12717,0.15897 -0.21269,0.34885 -0.33985,0.50781 -0.0998,0.1247 -0.22497,0.22497 -0.33789,0.33789 -0.0565,0.0565 -0.14468,0.0941 -0.16992,0.16992 -0.0357,0.10713 0.0357,0.23077 0,0.33789 -0.0253,0.0757 -0.12563,0.10351 -0.16992,0.16992 -1.40857,2.11286 0.0343,-0.0684 -0.67773,1.35547 -0.091,0.18208 -0.2623,0.31881 -0.3379,0.50782 -0.0419,0.10485 0.0357,0.23272 0,0.33984 -0.0252,0.0758 -0.11346,0.11151 -0.16992,0.16797 0,0.11292 0.0274,0.23029 0,0.33984 -0.0306,0.12248 -0.11346,0.22497 -0.16992,0.33789 -0.11292,0.22584 -0.25805,0.4382 -0.33789,0.67774 -0.0179,0.0536 0.0136,0.11513 0,0.16992 -0.0427,0.17175 -0.11212,0.33599 -0.16797,0.50391 -0.11271,0.33883 -0.22497,0.67686 -0.33789,1.01562 -0.0565,0.16938 -0.11346,0.33843 -0.16992,0.50781 -0.0565,0.16938 -0.0881,0.34813 -0.16797,0.50782 -0.091,0.18208 -0.24881,0.32768 -0.33984,0.50976 -0.0799,0.15969 -0.10364,0.34204 -0.16992,0.50781 -0.0938,0.23444 -0.24413,0.4433 -0.3379,0.67774 -0.13262,0.33155 -0.19918,0.68741 -0.33984,1.01562 -0.0995,0.23208 -0.23535,0.44701 -0.33789,0.67774 -0.90436,2.0348 0.0509,-0.0414 -0.50781,1.35547 -0.0469,0.11722 -0.11346,0.22497 -0.16992,0.33789 -0.11292,0.22584 -0.24413,0.44329 -0.3379,0.67773 -0.78531,1.96332 -0.009,0.196 -0.50781,1.69336 -0.0399,0.11977 -0.12304,0.22262 -0.16992,0.33984 -0.13294,0.3298 -0.206,0.68157 -0.33789,1.01172 -0.0468,0.11724 -0.12805,0.21812 -0.16797,0.33789 -0.0179,0.0536 0.0136,0.11515 0,0.16993 -0.0426,0.17106 -0.11222,0.33471 -0.16797,0.50195 -0.0565,0.16938 -0.10389,0.34193 -0.16992,0.50781 -0.0445,0.11178 -0.12267,0.20795 -0.16016,0.32227 -0.0176,0.0536 0.0251,0.11933 0,0.16992 -0.25672,0.51826 -0.12828,-0.3248 -0.33593,0.50195 -0.0275,0.10952 0,0.22497 0,0.33789 -0.0565,0.11292 -0.13001,0.22008 -0.16993,0.33985 -0.0179,0.0536 0.0313,0.12295 0,0.16992 -0.0886,0.13288 -0.26635,0.19512 -0.33789,0.33789 -0.10397,0.20752 -0.0966,0.45555 -0.16992,0.67578 -0.40489,1.21722 0.0508,-0.26768 -0.33593,0.50586 -0.0252,0.0505 0.0178,0.11633 0,0.16992 -0.4734,0.9468 0.0637,-0.25488 -0.16797,0.67188 -0.0306,0.12248 -0.12304,0.22262 -0.16993,0.33984 -0.0663,0.16577 -0.0881,0.34812 -0.16796,0.50781 -0.0357,0.0714 -0.14468,0.0941 -0.16993,0.16992 -0.0357,0.10713 0.0274,0.22836 0,0.33789 -0.20323,0.81293 -0.0824,-0.005 -0.33984,0.50782 -0.0791,0.15765 -0.087,0.3443 -0.16602,0.50195 -0.37952,0.75671 0.0555,-0.68136 -0.33789,0.50391 -0.0178,0.0536 0.0251,0.11936 0,0.16992 -0.0351,0.0706 -0.12234,0.10232 -0.16601,0.16797 -0.0699,0.10511 -0.091,0.23931 -0.16992,0.33789 -1.04676,1.30845 0.0358,-0.39152 -1.01563,1.18554 -0.07,0.10504 -0.10497,0.23159 -0.16992,0.33985 -0.10474,0.17456 -0.23316,0.33325 -0.33789,0.50781 -0.065,0.10826 -0.11346,0.22497 -0.16992,0.33789 -0.11292,0.22584 -0.24039,0.44566 -0.33985,0.67774 -0.0703,0.1641 -0.11163,0.33839 -0.16797,0.50781 -0.11422,0.34346 -0.22952,0.68779 -0.34375,1.03125 -0.18673,0.56149 -0.34179,1.10808 -0.34179,1.70508 0,0.16938 -0.0411,0.34349 0,0.50781 0.0737,0.29497 0.18899,0.58172 0.33984,0.8457 0.0792,0.13865 0.22497,0.22693 0.33789,0.33985 0.22584,0.22584 0.43238,0.47327 0.67774,0.67773 0.097,0.0808 0.22827,0.10533 0.33789,0.16797 0.28583,0.16334 0.5532,0.36254 0.84765,0.50977 0.40407,0.20201 1.46802,0.5572 1.86328,0.67578 0.22298,0.0669 0.44947,0.12427 0.67774,0.16992 0.0554,0.0111 0.11441,-0.0178 0.16797,0 0.32062,0.10687 0.55732,0.34661 0.84765,0.50781 0.33398,0.18544 0.66865,0.37706 1.02539,0.51367 1.07745,0.41262 1.139,0.28652 2.13086,0.53516 0.17318,0.0434 0.33171,0.14057 0.50782,0.16992 0.16707,0.0278 0.33843,0 0.50781,0 0.16938,0 0.34532,0.0406 0.50976,0 0.077,-0.019 0.1019,-0.12207 0.16797,-0.16602 0.10459,-0.0696 0.2256,-0.1136 0.33789,-0.16992 0.2257,-0.1132 0.46765,-0.19978 0.67774,-0.33984 0.0664,-0.0443 0.10153,-0.12368 0.16797,-0.16797 0.10504,-0.07 0.23884,-0.0941 0.33984,-0.16992 0.25551,-0.19163 0.42835,-0.47822 0.67773,-0.67774 0.15896,-0.12717 0.34496,-0.21575 0.50782,-0.33789 0.0639,-0.0479 0.0986,-0.13404 0.16992,-0.16992 0.0913,-0.0459 0.21608,0.0474 0.30664,0 0.0691,-0.0361 0.11151,-0.10831 0.16797,-0.16211 l 0.67773,-0.33789 c 0.32405,-0.16202 1.04892,-0.4062 1.18555,-0.67773 0.0485,-0.0965 -0.0496,-0.22824 0,-0.32422 0.2458,-0.47614 0.14868,0.25184 0.33594,-0.50195 0.0272,-0.10959 -0.0357,-0.23077 0,-0.3379 0.0253,-0.0758 0.14272,-0.0941 0.16797,-0.16992 0.0291,-0.0873 0,-0.78282 0,-0.95312 0,-0.0394 0.0313,-0.0952 0,-0.11914 -0.0409,-0.0313 -0.11868,0.0372 -0.1543,0 -0.005,-0.005 0,-0.46072 0,-0.50782 0,-0.28157 -0.0463,-0.566 0,-0.84374 0.0294,-0.17611 0.12649,-0.33659 0.16992,-0.50977 0.0271,-0.10816 -0.0354,-0.22825 0,-0.33399 0.1947,-0.58161 0.1381,-0.12316 0.50781,-0.67773 0.14006,-0.21009 0.22497,-0.45189 0.33789,-0.67773 0.0565,-0.11292 0.1202,-0.22185 0.16993,-0.33789 0.11977,-0.27946 0.19219,-0.58188 0.33984,-0.84766 0.1371,-0.24677 0.3582,-0.43836 0.50781,-0.67773 0.13383,-0.21412 0.21524,-0.45704 0.33789,-0.67774 0.19905,-0.35816 0.50766,-0.78545 0.68164,-1.19141 0.11977,-0.27947 0.20388,-0.57571 0.33985,-0.84765 0.091,-0.18208 0.24686,-0.32574 0.33789,-0.50781 l 0.33984,-0.84766 c 0,-0.0557 -0.0178,-0.11318 0,-0.16602 0.36694,-1.09158 -0.0292,0.42074 0.33789,-0.67578 0.0177,-0.0529 -0.0176,-0.11507 0,-0.16797 0.0395,-0.1189 0.1216,-0.21955 0.16797,-0.33593 0.0661,-0.16586 0.0881,-0.34813 0.16797,-0.50782 0.0357,-0.0714 0.12884,-0.10145 0.16992,-0.16992 0.22135,-0.36892 0.55032,-1.14118 0.67774,-1.52344 0.0736,-0.22085 0.0731,-0.46599 0.16992,-0.67773 0.2021,-0.44233 0.48721,-0.84188 0.71875,-1.26953 0.14107,-0.26055 0.24974,-0.53865 0.39844,-0.79492 1.64992,-2.84349 0.17357,-0.0535 1.64843,-2.75196 0.20446,-0.37408 0.20806,-0.39357 0.26563,-0.50781 0.10833,-0.16102 0.3097,-0.47413 0.78515,-1.24609 0.24077,-0.39094 0.38784,-0.84415 0.6836,-1.19531 0.41171,-0.48885 1.02408,-0.7813 1.44336,-1.26368 0.71379,-0.8212 0.73578,-0.98089 1.40625,-1.59375 4.16326,-3.80546 -0.0102,-0.0173 2.375,-2 0.54367,-0.45192 1.05953,-0.93638 1.59961,-1.39257 0.76555,-0.64667 1.50584,-1.13591 2.22851,-1.85938 0.27121,-0.2715 0.47574,-0.60219 0.71485,-0.90234 0.22769,-0.28582 0.47587,-0.55619 0.68554,-0.85547 0.18889,-0.26963 0.31289,-0.58236 0.50782,-0.84766 0.5043,-0.68637 1.05623,-1.33696 1.58593,-2.00391 0.22727,-0.28614 0.49051,-0.54643 0.68555,-0.85546 0.0795,-0.12605 0.65524,-1.06826 1.1875,-2.03125 a 56.0452,55.776138 0 0 0 17.33398,4.24804 l 3.07032,-48.93164 c 0.0306,0.0289 0.0554,0.0493 0.0859,0.0781 l -2.4082,48.89453 a 56.0452,55.776138 0 0 0 26.7832,-5.48047 c 0.008,0.0116 0.0152,0.0236 0.0234,0.0352 8.77809,-4.45467 16.0876,-9.60995 22.60547,-15.86133 8.6466,-8.29308 18.73897,-20.85797 22.19922,-27.64063 2.29263,-4.49389 1.95675,-4.65397 -5.9375,-2.83398 -2.41008,0.5559 -4.58294,0.80769 -4.83008,0.56055 -0.24713,-0.24714 2.97539,-2.76076 7.16211,-5.58594 7.7472,-5.22777 11.22582,-9.16903 16.7832,-19.01563 1.71294,-3.03496 7.37729,-12.01637 12.58594,-19.95703 7.44636,-11.35207 12.08408,-17.0873 21.70313,-26.83984 l 12.23242,-12.4043 -4.37696,0.34961 c -2.40765,0.1915 -4.37695,0.31233 -4.37695,0.26953 0,-0.0428 2.92503,-2.42228 6.5,-5.28711 l 6.5,-5.20898 v 5.0293 5.02929 h 6.5 6.5 v -7 -7 l -3.25,-0.0234 -3.25,-0.0254 4.21094,-3.97461 c 3.86483,-3.64796 4.66692,-3.97656 9.75,-3.97656 h 5.53906 v -3.23437 c 0,-2.80284 1.63571,-4.87582 12.23438,-15.5 l 12.23437,-12.26563 h 8.54297 c 6.35943,0 9.1518,-0.42543 10.92578,-1.66797 3.45971,-2.42325 20.0625,-19.36533 20.0625,-20.47265 0,-0.53257 -3.56945,-0.81322 -8.25,-0.64844 l -8.25,0.28906 -0.30469,4.75 -0.30468,4.75 h -4.44532 -4.44531 v -9.5 -9.5 h -9 -9 v -12 -12 h -9.33203 z m 27.16211,1.5 c -3.6495,0 -4.02809,0.24982 -4.32422,2.83594 -0.17852,1.55896 -0.08,3.47146 0.21875,4.25 0.34588,0.90135 2.02727,1.41406 4.63086,1.41406 h 4.08985 l -0.3086,-4.25 c -0.30681,-4.23997 -0.31566,-4.25 -4.30664,-4.25 z m 9.5,2.5 v 6.5 6.5 h 7 7 v -6.5 -6.5 h -7 z m -135,1.88086 -3.75,0.31055 c -3.05062,0.25249 -3.81237,0.74327 -4.08008,2.63281 -0.181,1.2775 -0.0825,2.965 0.21875,3.75 0.33137,0.86352 1.94353,1.42578 4.08008,1.42578 3.46208,0 3.53125,-0.078 3.53125,-4.05859 z m 178.30274,1.79688 c -0.51813,-0.007 -1.19346,0.0451 -2.07227,0.1289 -3.63518,0.34667 -3.77199,0.49955 -3.87109,4.27735 l -0.10352,3.91601 h 4.47852 c 3.67321,0 4.37085,-0.28279 3.87304,-1.58008 -0.33385,-0.86998 -0.60742,-2.79529 -0.60742,-4.27734 0,-1.88486 -0.14289,-2.44423 -1.69726,-2.46484 z m -21.55274,5.98437 c -1.84675,-0.0956 -2.30728,0.47978 -2.57031,3.20703 -0.17625,1.82754 -0.0777,3.95392 0.21875,4.72657 0.77013,2.00691 8.55846,1.92147 8.72656,-0.0957 0.56153,-6.73831 0.37388,-7.49832 -1.875,-7.60937 -1.2375,-0.0611 -3.2625,-0.16442 -4.5,-0.22852 z m -68.75,6.33789 h 8 8 v 8 8 h -8 -8 v -8 z m 89,3 v 4 4 h 4 4 v -4 -4 h -4 z m -167.98242,7.5 c -3.24849,0 -3.5245,0.25213 -4.0918,3.74219 -0.33453,2.05813 -0.38094,3.97063 -0.10156,4.25 0.27937,0.27938 2.26044,0.50781 4.40039,0.50781 h 3.89063 l -0.3086,-4.25 c -0.29865,-4.12765 -0.40627,-4.25 -3.78906,-4.25 z m -29.01758,1.5 v 4.5 4.5 h 4 4 v -4.5 -4.5 h -4 z m 80,6 6.75,0.0312 6.75,0.0293 -6,3.45898 c -3.29997,1.90147 -6.3375,3.46175 -6.75,3.46875 -0.4125,0.007 -0.75,-1.56328 -0.75,-3.48828 z m 14,2.88867 v 5.55664 5.55469 l -5.75,-0.0391 -5.75,-0.041 3.5,-2.95312 c 1.925,-1.62389 4.5125,-4.1062 5.75,-5.51563 z m -47.99805,0.61133 h 8.99805 v 9.25 c -2.4e-4,7.36201 -0.29338,9.25 -1.43359,9.25 -0.78794,0 -1.70338,0.85702 -2.03516,1.90235 -0.33177,1.04529 -1.72757,2.18249 -3.10156,2.52734 -1.374,0.34485 -3.00543,1.73978 -3.625,3.09961 -0.81326,1.78491 -1.91495,2.4707 -3.96484,2.4707 -2.43331,0 -2.83985,0.39505 -2.83985,2.75977 0,1.77444 -0.79885,3.25926 -2.23828,4.1582 -1.23117,0.76888 -5.28117,1.55209 -9,1.74024 l -6.76172,0.34179 v -12 -12 h 5 5 v -3.49023 c 0,-2.88861 0.60233,-3.88053 3.48828,-5.75 1.91819,-1.24255 3.493,-2.70977 3.5,-3.25977 0.008,-0.59159 3.68981,-1 9.01367,-1 z m 21.23633,2.98438 c 0.378,-0.055 0.87073,-0.0356 1.51172,0.01 5.30921,0.3753 5.37315,0.40706 4.37305,2.25586 -0.52066,0.9625 -2.33647,2.56304 -4.03516,3.55664 l -3.08789,1.80664 v -3.90625 c 0,-2.73234 0.10429,-3.55771 1.23828,-3.72265 z m 53.76172,0.51562 h 5 5 v 5.5 5.5 h -5 -5 v -5.5 z m -83,2 v 6 6 h 6 6 v -6 -6 h -6 z m 34.5586,3 c 0.24254,0 0.4414,0.45 0.4414,1 0,0.55 -0.47613,1 -1.05859,1 -0.58246,0 -0.78133,-0.45 -0.44141,-1 0.33992,-0.55 0.81606,-1 1.0586,-1 z m -84.9336,5 c -2.97483,0 -3.44915,0.3687 -3.99609,3.10352 -0.34132,1.70648 -0.37142,3.50648 -0.0664,4 0.305,0.49351 2.10356,0.89648 3.9961,0.89648 3.34775,0 3.4414,-0.10831 3.4414,-4 0,-3.87651 -0.10417,-4 -3.375,-4 z m 104.875,0.9961 8.25,0.002 8.25,0.002 v 8 0.002 8 h -7.92383 -7.92382 l -0.32618,-8.00195 z m -13.5,2.0039 h 4 4 v 4 4 h -4 -4 v -4 z m -57,2 v 6.5 6.5 h 6 6 v -6.5 -6.5 h -6 z m 150.11914,0.19922 c -3.48788,0.29158 -3.63142,0.45545 -3.92773,4.55078 l -0.30664,4.25 h 4.55664 c 4.06365,0 4.55712,-0.2438 4.54492,-2.25 -0.0335,-5.51561 -1.04163,-6.87059 -4.86719,-6.55078 z m -111.11914,0.80078 c 1.79487,0 2,0.6667 2,6.5 v 6.5 h 7 7 v 5 5 h 7 7 l -0.0254,5.25 -0.0254,5.25 -7.22461,5.14258 -7.22461,5.14063 -0.30469,-4.39063 -0.30468,-4.39258 h -5.44532 -5.44531 v 5.48242 5.48047 l 4.5,-0.61718 c 2.81733,-0.38616 4.5,-0.23206 4.5,0.4121 0,1.15088 -2.32613,2.24219 -4.77734,2.24219 -0.88742,0 -2.87538,1.2096 -4.41797,2.6875 l -2.80469,2.6875 v -2.6875 c 0,-2.36772 -0.38627,-2.68583 -3.25,-2.67383 -6.19694,0.026 -7.75,0.92273 -7.75,4.47266 0,2.98161 -0.31235,3.30484 -3.75,3.87305 -7.68934,1.27098 -7.25,1.95062 -7.25,-11.21875 0,-6.52323 -0.28116,-13.91329 -0.625,-16.42188 -0.61015,-4.45146 -0.5561,-4.56806 2.25,-4.88867 2.59744,-0.29677 2.875,-0.69171 2.875,-4.08008 0,-3.66747 0.0831,-3.75064 3.75,-3.75 3.7084,6.5e-4 3.75,-0.0443 3.75,-4 0,-3.90477 0.0834,-4 3.5,-4 3.4167,0 3.5,-0.0952 3.5,-4 0,-3.3333 0.33333,-4 2,-4 z m 73,8 v 4.5 4.5 h 4 4 v -4.5 -4.5 h -4 z m -67.28711,7.09375 c -1.53811,0.0427 -1.71289,0.5873 -1.71289,2.34766 0,2.46267 -0.22894,2.55859 -6,2.55859 h -6 v 6.25 l -0.002,6.25 6.25195,-0.16211 6.25,-0.16211 0.5,-3.83203 c 0.43389,-3.32507 0.89667,-3.90014 3.5,-4.34765 2.74594,-0.47203 3,-0.85362 3,-4.50586 0,-3.88903 -0.0951,-3.99633 -3.75,-4.29883 -0.85942,-0.0711 -1.5244,-0.11189 -2.03711,-0.0977 z m 92.83985,1.90625 c -4.00763,0 -5.01137,0.45466 -7.64063,3.44922 -2.51946,2.86951 -3.81505,3.49827 -7.7207,3.75 l -4.69141,0.30078 -0.30273,5.25 -0.30274,5.25 h 4.63086 c 4.49805,0 4.84995,-0.23111 12.30274,-8.12695 4.21954,-4.47042 7.82253,-8.52042 8.00586,-9 0.18334,-0.47957 -1.74364,-0.87305 -4.28125,-0.87305 z m -120.8418,3.3086 c 0.22144,0.0557 0.28906,0.40591 0.28906,1.07031 0,0.89234 -0.675,1.62109 -1.5,1.62109 -0.825,0 -1.5,-0.16929 -1.5,-0.37695 0,-0.20765 0.675,-0.93836 1.5,-1.62305 0.61426,-0.50978 0.9895,-0.74714 1.21094,-0.6914 z m -8.21094,0.39062 -6,5.90039 c -3.29997,3.24619 -8.8125,8.76055 -12.25,12.25195 -3.43747,3.49143 -6.25,6.09378 -6.25,5.78516 0,-1.324 11.06621,-12.78612 17.5,-18.12695 z m 44.125,6.30078 c -3.00008,0 -3.98469,1.29201 -3.10351,4.06836 0.99772,3.14355 4.89316,2.17333 5.29492,-1.31836 0.27074,-2.35296 -0.046,-2.75 -2.19141,-2.75 z m 8.98438,0 c -3.13606,0 -3.42151,0.26575 -3.80274,3.53125 -0.22666,1.94181 -0.20155,3.74181 0.0566,4 0.25819,0.25818 1.9694,0.46875 3.80274,0.46875 3.22219,0 3.33398,-0.13333 3.33398,-4 0,-3.88015 -0.10163,-4 -3.39062,-4 z m -36.04493,0.0899 c -0.44991,-0.023 -1.03978,0.023 -1.81445,0.0976 -2.91551,0.28111 -3.25715,0.64499 -3.31055,3.53906 -0.0327,1.77438 -0.37021,3.53818 -0.75,3.91797 -0.88521,0.8852 -0.90502,10.80787 -0.0234,11.68946 0.36666,0.36667 3.06666,0.66601 6,0.66601 h 5.33398 v -6.09179 c 0,-5.25262 -0.27603,-6.16636 -2,-6.61719 -1.512,-0.3954 -2,-1.36499 -2,-3.97071 0,-2.46465 -0.0857,-3.16143 -1.43555,-3.23046 z m 69.43555,7.91015 v 4.49414 4.49219 l 4,-0.15625 4,-0.15625 v -4.33594 -4.33789 h -4 z m -112.9414,11 c 0.58246,0 0.78132,0.45 0.4414,1 -0.33992,0.55 -0.81605,1 -1.05859,1 -0.24254,0 -0.44141,-0.45 -0.44141,-1 0,-0.55 0.47614,-1 1.0586,-1 z m -2.24805,3 c 0.275,0 -0.31506,0.9 -1.31055,2 -0.99549,1.1 -2.03555,2 -2.31055,2 -0.27497,0 0.31506,-0.9 1.31055,-2 0.99549,-1.1 2.03555,-2 2.31055,-2 z m 70.37109,5 c 1.06512,0 1.66036,0.44906 1.32227,0.9961 -0.91931,1.48746 -4.15137,3.02438 -4.86328,2.3125 -1.01264,-1.01265 1.44392,-3.3086 3.54101,-3.3086 z m -18.46289,7.38672 c 0.69492,0.69492 -23.46735,12.06246 -34.12109,16.05273 -5.23039,1.95901 -10.09317,3.53922 -10.80469,3.51172 -0.71152,-0.0275 2.98206,-1.59289 8.20703,-3.47851 5.225,-1.88561 15.52338,-6.37775 22.88477,-9.98242 7.36136,-3.6047 13.58647,-6.35103 13.83398,-6.10352 z m 37.28125,1.11328 c -2.90098,0 -3.55732,0.39902 -3.83008,2.32422 -0.181,1.2775 -0.0825,2.965 0.21875,3.75 0.33377,0.86979 1.95179,1.42578 4.14063,1.42578 3.53898,0 3.58705,-0.0551 3.28125,-3.75 -0.29464,-3.5599 -0.48795,-3.75 -3.81055,-3.75 z m -13.66601,0.5 c -3.22222,0 -3.33399,0.13336 -3.33399,4 0,3.88018 0.10161,4 3.39063,4 3.13603,0 3.4215,-0.26379 3.80273,-3.52929 0.50015,-4.28414 0.34075,-4.47071 -3.85937,-4.47071 z m -13.74024,1.48633 c 0.34828,-0.0399 0.63573,0.077 0.80664,0.35352 0.31791,0.51439 -0.0523,1.45668 -0.82226,2.0957 -0.82791,0.68711 -1.63669,0.77965 -1.97852,0.22656 -0.31791,-0.51439 0.0523,-1.45668 0.82227,-2.0957 0.41395,-0.34356 0.82359,-0.54018 1.17187,-0.58008 z"
         inkscape:label="color_part" /><path
         id="path339"
         style="fill:#000000"
         inkscape:label="black_part"
         d="m 523.51367,330.53125 -2.71875,1.77344 c -2.68986,1.75444 -2.69485,1.77577 -0.4414,2.09961 1.81569,0.26093 2.21508,0.86809 1.96875,2.99218 -0.33927,2.92545 -3.8086,4.49463 -3.8086,1.72266 0,-2.92689 -2.99753,-2.91892 -6.06055,0.0156 -3.66462,3.51093 -3.71273,4.59925 -0.18945,4.23046 2.62272,-0.27453 2.76384,-0.0663 3.05664,4.51563 l 0.30664,4.80469 -5.15039,-0.30469 -5.15039,-0.30469 -0.29883,-4.80859 c -0.16407,-2.64466 -0.56144,-5.0712 -0.88476,-5.39453 -2.39722,-2.39722 -37.46435,31.54989 -41.52344,40.19726 -3.35928,7.1565 -7.10203,22.68904 -7.71094,32.00586 -0.56791,8.68963 -1.24146,12.98706 -1.92968,12.29883 -0.70642,-0.70642 -3.43125,-15.93025 -4.23047,-23.64062 l -0.73438,-7.09766 -6.98633,8.7207 c -9.16662,11.44117 -27.24048,38.35371 -30.10156,44.82227 -4.45807,10.07918 -5.46609,22.90789 -2.97851,37.89648 0.73023,4.4 1.13186,8.21359 0.89257,8.47266 -1.44703,1.56665 -6.08311,-11.28476 -8.44922,-23.41992 -1.06683,-5.47152 -2.09413,-10.10194 -2.28124,-10.28907 -1.05018,-1.05018 -3.04469,17.98414 -2.95899,28.23633 0.10536,12.59694 1.733,22.32368 5.94141,35.5 2.8016,8.77173 2.93088,10.84775 0.96093,15.5625 l -1.46289,3.49805 -3.66015,-1.5293 c -6.6378,-2.77346 -9.54921,-1.83286 -10.89258,3.51953 -0.45947,1.83066 -0.0828,3.03997 1.35351,4.33985 1.66173,1.50385 1.80906,2.20382 0.88477,4.23242 -0.67665,1.48507 -0.7493,2.79119 -0.18555,3.35351 0.50758,0.50631 6.99884,3.63925 14.42383,6.96289 7.42499,3.32366 13.78776,6.04774 14.14063,6.05274 0.35288,0.005 0.91751,-1.08746 1.2539,-2.42774 0.46608,-1.857 1.38267,-2.51139 3.85157,-2.75 2.38988,-0.23097 3.58545,-1.03965 4.55859,-3.08007 1.8405,-3.85904 0.70281,-6.43507 -3.87695,-8.77149 -2.16001,-1.10196 -3.92774,-2.16272 -3.92774,-2.35937 0,-0.19665 0.70286,-2.0422 1.5625,-4.09961 l 1.5625,-3.74024 12.1875,0.47461 c 6.70286,0.26117 13.0875,0.77757 14.1875,1.14649 1.1,0.36892 0.0368,-0.24523 -2.36133,-1.36328 -2.39812,-1.11804 -6.11063,-2.3122 -8.25,-2.6543 -4.92746,-0.78793 -4.98962,-2.095 -0.13867,-2.88867 9.60978,-1.57227 27.58417,-6.62745 35.54688,-9.9961 4.83833,-2.04686 8.66334,-3.8358 8.5,-3.97656 -0.16334,-0.14075 -3.60384,0.31536 -7.64649,1.01367 -9.58525,1.65569 -33.15039,2.95938 -33.15039,1.83399 0,-0.47884 3.71251,-1.70367 8.25,-2.72071 20.27657,-4.54482 42.66648,-14.15557 51.51953,-22.11523 7.76555,-6.98188 26.23047,-29.90266 26.23047,-32.56055 0,-0.39166 -2.82947,-0.11931 -6.28711,0.60547 -11.68512,2.44941 -30.9759,5.53422 -32.59961,5.21289 -0.88735,-0.1756 1.98673,-1.59056 6.38672,-3.14453 10.41399,-3.67797 30.89052,-13.53569 36.05078,-17.35547 2.22804,-1.64925 5.63911,-5.64838 7.58008,-8.88672 1.94096,-3.23834 5.16483,-8.42919 7.16406,-11.53515 3.0602,-4.75427 3.3242,-5.56541 1.66993,-5.13281 -1.58359,0.41411 -1.96485,0.005 -1.96485,-2.10352 0,-2.94525 2.36084,-3.58056 3.79297,-1.02148 0.74785,1.33632 1.21546,1.08078 2.89648,-1.57422 1.19595,-1.88887 1.81329,-4.17069 1.5293,-5.65625 -0.4176,-2.18414 -0.92143,-2.45272 -4.09765,-2.17774 -3.29836,0.28556 -3.6493,0.0673 -3.9375,-2.4375 -0.29928,-2.60103 -0.0961,-2.75 3.75,-2.75 3.62236,0 4.0664,0.26285 4.0664,2.39453 0,2.3927 2.82537,4.42816 3.91992,2.82422 0.31897,-0.46742 1.66571,-2.61949 2.99219,-4.7832 1.32647,-2.16371 3.28487,-4.91455 4.35352,-6.11133 2.25971,-2.53066 1.61408,-4.36592 -1.27149,-3.61133 -1.10238,0.28828 -2.64226,-0.005 -3.42187,-0.65234 -1.14561,-0.95078 -1.48165,-0.74102 -1.7461,1.09766 -0.45633,3.17286 -6.5106,4.99414 -8.33007,2.50585 -1.14256,-1.56253 -1.36936,-1.50514 -2.8086,0.69141 -0.86115,1.31429 -2.60592,2.61814 -3.87695,2.89844 -1.27103,0.28029 -9.15,2.36367 -17.50781,4.6289 -8.35782,2.26523 -15.98454,4.11719 -16.94922,4.11719 -3.33004,0 0.10149,-1.77102 10.64648,-5.49609 12.60642,-4.45329 30.98252,-12.88049 28.95117,-13.27735 -2.86748,-0.56022 -3.95006,-5.43312 -4.03906,-18.17578 -0.0838,-12.01116 -1.46821,-26.96738 -1.7793,-19.22461 -0.13307,3.31218 -0.15261,3.3241 -4.75586,3.04102 -3.82555,-0.23525 -4.94539,0.11529 -6.5,2.03516 -1.033,1.27571 -1.87695,3.61992 -1.87695,5.20898 0,2.4815 -0.38808,2.8912 -2.75,2.9043 -3.11789,0.0174 -3.78775,0.41488 -7.18164,4.25195 -2.30156,2.60209 -2.3351,2.8176 -0.64062,4.05664 0.98445,0.71984 1.62354,2.17314 1.41992,3.23047 -0.52921,2.74797 -3.68464,3.06107 -4.64649,0.46094 -0.71146,-1.92325 -1.45885,-1.33942 -7.58984,5.92578 -31.07487,36.82364 -61.65902,87.41648 -85.70508,141.77344 -3.35409,7.58204 -6.28895,14.09376 -6.52148,14.4707 -0.3225,0.52279 -8.74628,-2.51093 -10.14063,-3.65234 -0.5434,-0.44483 12.12814,-27.54855 18.91602,-40.45899 23.55244,-44.79646 47.64003,-81.35907 75.70312,-114.91601 3.37732,-4.0385 5.88503,-7.75493 5.57422,-8.25782 -0.3108,-0.50289 0.25069,-1.19037 1.24805,-1.52929 0.99736,-0.33892 5.41446,-4.27473 9.81445,-8.7461 4.4,-4.47136 10.70001,-10.44672 14,-13.27734 l 6,-5.14649 -6.25,0.53907 -6.25,0.53906 v -12.16211 z m -29.03711,22.56836 c 0.52993,-0.32752 1.84924,0.29065 2.93164,1.37305 1.08241,1.08241 3.46195,2.10999 5.28711,2.28515 3.15179,0.30247 3.31836,0.51927 3.31836,4.31836 0,3.95693 -0.0443,4.00498 -4.03711,4.29883 -4.71956,0.34735 -5.46289,-0.17864 -5.46289,-3.85742 0,-1.50092 -0.67421,-2.98585 -1.5,-3.30274 -1.66773,-0.63997 -2.04031,-4.1862 -0.53711,-5.11523 z m 21.53711,4.47656 c 3.33333,0 3.5,0.16668 3.5,3.5 0,3.33333 -0.16667,3.5 -3.5,3.5 -3.33332,0 -3.5,-0.16667 -3.5,-3.5 0,-3.33332 0.16668,-3.5 3.5,-3.5 z m -13.87695,12.12891 c 1.58683,-0.61102 3.91974,0.74308 4.19336,3.12109 0.27333,2.37548 -0.0372,2.75 -2.28125,2.75 -2.76645,0 -4.13656,-1.98826 -3.14649,-4.56836 0.2591,-0.6752 0.70544,-1.09906 1.23438,-1.30273 z m 35.87695,2.87109 c 2,0 2.5,0.5 2.5,2.5 0,2 -0.5,2.5 -2.5,2.5 -2,0 -2.5,-0.5 -2.5,-2.5 0,-2 0.5,-2.5 2.5,-2.5 z m 0.21094,6.45508 c 0.11611,0.0736 0.40969,2.25997 0.65234,4.85742 0.35891,3.84199 0.0976,4.90547 -1.39648,5.70508 -1.01011,0.5406 -3.21423,0.98242 -4.90039,0.98242 -3.04214,0 -3.06641,-0.0411 -3.06641,-5.39453 v -5.39453 l 4.25,-0.44531 c 2.3375,-0.24438 4.34482,-0.38415 4.46094,-0.31055 z m -40.83594,1.67383 c 0.89051,0.10573 1.125,0.73318 1.125,2.30273 0,2.09273 -0.47758,2.56836 -2.57031,2.56836 -2.09274,0 -2.51025,-0.41752 -2.25,-2.25 0.20536,-1.44596 1.12435,-2.363 2.57031,-2.56836 0.45812,-0.0651 0.82817,-0.088 1.125,-0.0527 z m 57.68555,12.88086 c -1.86342,-0.26727 -4.07672,1.05414 -4.65039,3.21289 l -0.72266,2.72265 4.02539,-2.05273 c 2.69316,-1.37394 3.69302,-2.38511 3.02149,-3.05664 -0.4699,-0.46989 -1.05269,-0.73708 -1.67383,-0.82617 z m -17.64649,0.11328 c 1.35135,0.22168 2.58594,1.07474 2.58594,2.37695 0,1.42076 -0.76979,2.09029 -2.65625,2.3086 -2.99124,0.34615 -4.15334,-0.83598 -3.21875,-3.27149 0.47011,-1.22509 1.93772,-1.63574 3.28906,-1.41406 z m -11.91406,3.87695 c 2.49757,0 3,0.40231 3,2.39453 0,1.31616 -0.71204,2.66616 -1.58203,3 -3.22983,1.2394 -4.41797,0.41556 -4.41797,-3.06054 0,-1.92592 0.52381,-2.33399 3,-2.33399 z m 5,17 h 4 4 v 4 4 h -4 -4 v -4 z m -7.60742,11 c 2.16461,0 3.60742,1.63249 3.60742,4.08203 0,0.50501 -1.35,0.91797 -3,0.91797 -2.53333,0 -3,-0.38889 -3,-2.5 0,-1.97019 0.5067,-2.5 2.39258,-2.5 z m -136.49805,137.86328 -2.19531,2.81836 c -1.20801,1.55019 -5.34648,6.34328 -9.19727,10.65039 -3.85077,4.30711 -8.73433,9.81674 -10.85156,12.24414 l -3.84961,4.41407 1.18555,12.25586 c 0.74781,7.72416 0.92787,17.61504 0.48438,26.7539 -0.38702,7.97499 -0.48843,14.275 -0.22461,14 0.26381,-0.275 4.18317,-8.88819 8.70898,-19.14258 6.86226,-15.54828 8.04715,-18.98439 7.13672,-20.68554 -4.17624,-7.80337 6.07149,-15.12344 12.59375,-8.9961 4.50332,4.23067 1.80524,12.0617 -4.47461,12.98828 -2.3194,0.34222 -2.7975,1.24458 -16.77149,31.61133 -1.92759,4.18877 -2.76181,6.94569 -1.96679,6.5 0.75933,-0.42568 5.35024,-4.41142 10.20312,-8.85547 10.18808,-9.32977 23.61227,-20.29581 28.06446,-22.92578 2.96859,-1.75359 3.09663,-2.12154 3.77343,-10.90429 0.38525,-4.99928 1.47676,-13.95013 2.42578,-19.89258 1.56945,-9.82733 1.58195,-10.87982 0.14258,-11.62305 -0.87036,-0.44943 -6.89357,-3.15537 -13.38476,-6.01367 z" /></g></g></svg>
